<svg width="32" height="32" viewBox="0 0 32 32" fill="none" xmlns="http://www.w3.org/2000/svg">
<path d="M22.2301 16.1921C22.2124 13.2901 24.6013 11.8922 24.7075 11.8214C23.3626 9.83949 21.2569 9.57406 20.5137 9.55636C18.7441 9.37941 17.0277 10.6181 16.1252 10.6181C15.2051 10.6181 13.8248 9.57406 12.3207 9.60945C10.4096 9.62715 8.60468 10.742 7.63144 12.4761C5.59647 15.9975 7.11827 21.1822 9.06476 24.0312C10.038 25.4291 11.1882 26.9863 12.6746 26.9332C14.1433 26.8801 14.6742 25.9954 16.4437 25.9954C18.1956 25.9954 18.7087 26.9332 20.2306 26.8978C21.8054 26.8801 22.7787 25.4999 23.7342 24.0843C24.8667 22.4917 25.3091 20.9168 25.3268 20.8283C25.2737 20.8106 22.2655 19.6604 22.2301 16.1921Z" fill="black"/>
<path d="M19.3624 7.68064C20.141 6.6897 20.6896 5.36254 20.5303 4C19.3978 4.05309 17.9822 4.7786 17.1505 5.75184C16.425 6.60122 15.7702 7.98146 15.9472 9.29092C17.2213 9.3794 18.5484 8.63619 19.3624 7.68064Z" fill="black"/>
</svg>
