<svg width="32" height="32" viewBox="0 0 32 32" fill="none" xmlns="http://www.w3.org/2000/svg">
<path fill-rule="evenodd" clip-rule="evenodd" d="M26.9999 16.2497C26.9999 15.4694 26.928 14.7202 26.7958 14H16.2246V18.2549H22.2658C22.0056 19.6301 21.2147 20.7948 20.0261 21.5751V24.3347H23.6542C25.7754 22.4197 26.9999 19.6 26.9999 16.2497Z" fill="#3E82F1"/>
<path fill-rule="evenodd" clip-rule="evenodd" d="M16.2242 26.9999C19.2548 26.9999 21.7959 26.0144 23.6527 24.3346L20.0247 21.5751C19.019 22.2352 17.7342 22.6248 16.2232 22.6248C13.2993 22.6248 10.8249 20.6901 9.94198 18.0901H6.19336V20.9398C8.0407 24.5346 11.8358 26.9999 16.2242 26.9999Z" fill="#32A753"/>
<path fill-rule="evenodd" clip-rule="evenodd" d="M9.94352 18.0901C9.71935 17.43 9.5914 16.7254 9.5914 16C9.5914 15.2746 9.71935 14.5699 9.94352 13.9098V11.0601H6.19385C5.43355 12.5451 5 14.2249 5 16C5 17.7751 5.43355 19.4549 6.19385 20.9399L9.94352 18.0901Z" fill="#F9BB00"/>
<path fill-rule="evenodd" clip-rule="evenodd" d="M16.2242 9.37513C17.8717 9.37513 19.3521 9.93057 20.5153 11.0197L23.7352 7.86425C21.7906 6.09016 19.2495 5 16.2242 5C11.8358 5 8.0407 7.46528 6.19336 11.0601L9.94304 13.9098C10.826 11.3098 13.3004 9.37513 16.2242 9.37513Z" fill="#E74133"/>
</svg>
