<svg width="24" height="24" viewBox="0 0 24 24" fill="none" xmlns="http://www.w3.org/2000/svg">
<path d="M18.4824 7.02417L16.9962 5.52384C16.8309 5.35778 16.6346 5.22603 16.4186 5.13615C16.2025 5.04627 15.9709 5 15.737 5C15.5031 5 15.2715 5.04627 15.0554 5.13615C14.8393 5.22603 14.643 5.35778 14.4777 5.52384L13.5237 6.48127L17.5284 10.5L16.2009 11.8286L12.1429 7.80984L5.25808 14.7223C5.09367 14.8886 5.00098 15.1131 5 15.3474V19H8.69321C8.92667 18.999 9.1504 18.906 9.31616 18.741L18.4824 9.54258C18.8139 9.20793 19 8.75524 19 8.28338C19 7.81151 18.8139 7.35882 18.4824 7.02417Z" fill="#8C95AF"/>
</svg>
