<svg width="16" height="16" viewBox="0 0 16 16" fill="none" xmlns="http://www.w3.org/2000/svg">
<rect width="16" height="16" fill="#00F3F3"/>
<path fill-rule="evenodd" clip-rule="evenodd" d="M1 11.0004C1 11.5527 1.44772 12.0004 2 12.0004H5.38128C6.24214 12.0004 7.00642 11.4496 7.27865 10.6329L8.8228 6.00043H11C11.5523 6.00043 12 5.55271 12 5.00043C12 4.44814 11.5523 4.00043 11 4.00043H8.8228C7.96194 4.00043 7.19766 4.55129 6.92543 5.36797L5.38128 10.0004H2C1.44772 10.0004 1 10.4481 1 11.0004Z" fill="#202F61"/>
<path d="M14.72 5.21524L11.5891 7.35587C11.2573 7.58277 10.8069 7.34513 10.8069 6.94312L10.8069 2.66186C10.8069 2.25985 11.2573 2.02221 11.5891 2.24911L14.72 4.38974C15.0104 4.58829 15.0104 5.01669 14.72 5.21524Z" fill="#202F61"/>
<path d="M7 4.00043L8.5 8.50043" stroke="#00F3F3" stroke-linecap="round" stroke-linejoin="round"/>
<path d="M6 8.00043L7.5 12.5004" stroke="#00F3F3" stroke-width="1.5" stroke-linecap="round" stroke-linejoin="round"/>
<path fill-rule="evenodd" clip-rule="evenodd" d="M1 5.00043C1 4.44814 1.44772 4.00043 2 4.00043H5.38128C6.24214 4.00043 7.00642 4.55129 7.27865 5.36797L8.8228 10.0004H11C11.5523 10.0004 12 10.4481 12 11.0004C12 11.5527 11.5523 12.0004 11 12.0004H8.8228C7.96194 12.0004 7.19766 11.4496 6.92543 10.6329L5.38128 6.00043H2C1.44772 6.00043 1 5.55271 1 5.00043Z" fill="#202F61"/>
<path d="M14.72 10.7856L11.5891 8.64498C11.2573 8.41809 10.8069 8.65573 10.8069 9.05773L10.8069 13.339C10.8069 13.741 11.2573 13.9786 11.5891 13.7517L14.72 11.6111C15.0104 11.4126 15.0104 10.9842 14.72 10.7856Z" fill="#202F61"/>
</svg>
