<svg width="24" height="24" viewBox="0 0 24 24" fill="none" xmlns="http://www.w3.org/2000/svg">
<circle cx="12" cy="12" r="12" fill="white"/>
<path d="M7.55552 8.1676L7.74981 8.21822C9.21588 8.60021 10.6993 7.66251 10.9832 6.17433C11.0025 6.07317 11.091 6 11.194 6H12.8064C12.9018 6 12.9834 6.0685 12.9999 6.16244C13.262 7.65198 14.7371 8.6028 16.202 8.22637L16.4369 8.16599C16.5952 8.12531 16.7612 8.19486 16.8433 8.33621L17.603 9.64506C17.6595 9.74243 17.6361 9.86651 17.548 9.93656C16.2203 10.9918 16.2203 13.0082 17.548 14.0634C17.6361 14.1335 17.6595 14.2576 17.603 14.3549L16.8413 15.6672C16.7534 15.8186 16.5773 15.8953 16.4066 15.8566L16.1166 15.7907C14.6829 15.465 13.267 16.4003 13.004 17.8468C12.9879 17.9355 12.9106 18 12.8205 18H11.1803C11.0821 18 10.9977 17.9306 10.9787 17.8342C10.6939 16.3896 9.27016 15.4672 7.83528 15.7977L7.58643 15.855C7.41928 15.8935 7.24654 15.8186 7.16043 15.6702L6.38987 14.3427C6.33216 14.2432 6.35475 14.1167 6.4433 14.0433C7.7228 12.9838 7.70806 11.0274 6.44902 9.97055C6.35369 9.89053 6.33333 9.75475 6.39047 9.65631L7.15849 8.33313C7.23864 8.19505 7.40102 8.12735 7.55552 8.1676Z" fill="#8C95AF" stroke="#8C95AF" stroke-width="2" stroke-linejoin="round"/>
<circle cx="12" cy="12" r="3" fill="white" stroke="#8C95AF" stroke-width="2"/>
</svg>
